<svg id="light" xmlns="http://www.w3.org/2000/svg" viewBox="0 0 285.52 252.27"><defs><style>.cls-1,.cls-13,.cls-14,.cls-15,.cls-16,.cls-17,.cls-3,.cls-5,.cls-7{fill:none;}.cls-1,.cls-15{stroke:#524bd6;}.cls-1,.cls-12,.cls-13,.cls-14,.cls-15,.cls-16,.cls-17,.cls-3,.cls-5,.cls-7,.cls-9{stroke-linecap:round;stroke-linejoin:round;}.cls-2{fill:#1e3851;}.cls-3{stroke:#1e3851;}.cls-4{fill:#0d2438;}.cls-13,.cls-5{stroke:#000;}.cls-5{stroke-width:6px;}.cls-6{fill:#abc8f4;}.cls-14,.cls-7,.cls-9{stroke:#0d2438;}.cls-12,.cls-13,.cls-15,.cls-16,.cls-17,.cls-7,.cls-9{stroke-width:0.5px;}.cls-8{fill:#1c1c1b;}.cls-12,.cls-9{fill:#fff;}.cls-10{fill:#ff4440;}.cls-11{fill:#524bd6;}.cls-12,.cls-16{stroke:#1c1c1b;}.cls-17{stroke:#292929;}</style></defs><path class="cls-1" d="M304.73,229.12h0a2.56,2.56,0,0,0-2.55,2.56v1.82a2.56,2.56,0,0,1-.75,1.81l-.77.77.53.53a2.56,2.56,0,0,1,.75,1.81V240a2.55,2.55,0,0,0,2.56,2.56h.42" transform="translate(-300.16 -152.67)"/><path class="cls-1" d="M322.79,229.12h0a2.56,2.56,0,0,1,2.56,2.56v1.82a2.56,2.56,0,0,0,.75,1.81l.77.77-.53.53a2.56,2.56,0,0,0-.75,1.81V240a2.56,2.56,0,0,1-2.56,2.56h-.42" transform="translate(-300.16 -152.67)"/><path class="cls-1" d="M308.58,242.79l-1.08,2.8" transform="translate(-300.16 -152.67)"/><path class="cls-1" d="M360.81,242.79l-1.09,2.8" transform="translate(-300.16 -152.67)"/><path class="cls-1" d="M372.26,242.79c-.37.93-.73,1.87-1.09,2.8" transform="translate(-300.16 -152.67)"/><path class="cls-1" d="M374.21,242.79l-1.09,2.8" transform="translate(-300.16 -152.67)"/><rect class="cls-2" x="11.81" y="79.25" width="7.54" height="7.54"/><path class="cls-1" d="M335.29,227.94a18.65,18.65,0,0,0-.1,16.65" transform="translate(-300.16 -152.67)"/><path class="cls-1" d="M376.29,227.94a18.65,18.65,0,0,1,.09,16.65" transform="translate(-300.16 -152.67)"/><rect class="cls-2" x="48.76" y="81.2" width="10.17" height="4.82"/><polygon class="cls-2" points="70.21 86.02 63.19 86.02 63.19 81.2 70.21 86.02"/><line class="cls-3" x1="69.62" y1="81.48" x2="75.76" y2="81.48"/><line class="cls-1" x1="72.31" y1="83.69" x2="75.76" y2="83.69"/><line class="cls-1" x1="44.19" y1="77.48" x2="44.19" y2="91.56"/><rect class="cls-4" x="215.81" y="174.25" width="42.35" height="3.37"/><path class="cls-5" d="M457,322.81a18.85,18.85,0,0,0,5.92-23.21c-1.63-3.45-4.26-6.39-5.59-10-2.09-5.57-.75-11.77.61-17.57" transform="translate(-300.16 -152.67)"/><rect x="134.43" y="168.33" width="49.78" height="3.94" rx="1.77"/><rect class="cls-2" x="81.4" y="55.17" width="158.76" height="95.32" rx="4.01"/><rect class="cls-4" x="82.18" y="62.66" width="157.16" height="80.59"/><rect class="cls-2" x="96.6" y="70.52" width="17.38" height="2.55"/><rect class="cls-2" x="117.2" y="70.52" width="29.19" height="2.55"/><rect class="cls-2" x="149.82" y="70.52" width="34.12" height="2.55"/><rect class="cls-2" x="187.59" y="70.52" width="13.09" height="2.55"/><rect class="cls-6" x="144.03" y="76.8" width="4.08" height="2.55"/><rect class="cls-6" x="155.83" y="76.8" width="1.93" height="2.55"/><rect class="cls-2" x="159.48" y="76.8" width="31.33" height="2.55"/><rect class="cls-2" x="194.68" y="76.8" width="9.2" height="2.55"/><rect class="cls-6" x="149.82" y="76.8" width="3.65" height="2.55"/><rect class="cls-2" x="126" y="76.8" width="16.74" height="2.55"/><rect class="cls-2" x="102.18" y="76.8" width="21.89" height="2.55"/><rect class="cls-2" x="96.6" y="76.8" width="3.65" height="2.55"/><rect class="cls-2" x="96.6" y="83.08" width="3.22" height="2.55"/><rect class="cls-2" x="102.61" y="83.08" width="31.55" height="2.55"/><rect class="cls-6" x="137.59" y="83.08" width="49.79" height="2.55"/><rect class="cls-2" x="189.1" y="83.08" width="14.78" height="2.55"/><rect class="cls-2" x="162.06" y="89.36" width="38.2" height="2.55"/><rect class="cls-2" x="96.6" y="89.36" width="6.01" height="2.55"/><rect class="cls-2" x="105.19" y="89.36" width="30.04" height="2.55"/><rect class="cls-6" x="137.16" y="89.36" width="19.53" height="2.55"/><rect class="cls-2" x="117.2" y="95.64" width="5.79" height="2.55"/><rect class="cls-2" x="96.6" y="95.64" width="18.03" height="2.55"/><rect class="cls-2" x="125.14" y="95.64" width="5.37" height="2.55"/><rect class="cls-2" x="132.65" y="95.64" width="24.25" height="2.55"/><rect class="cls-6" x="160.34" y="95.64" width="10.94" height="2.55"/><rect class="cls-6" x="176.01" y="95.64" width="11.16" height="2.55"/><rect class="cls-2" x="192.74" y="95.64" width="7.51" height="2.55"/><rect class="cls-6" x="167.7" y="101.92" width="12.23" height="2.55"/><rect class="cls-2" x="96.6" y="101.92" width="6.44" height="2.55"/><rect class="cls-2" x="107.55" y="101.92" width="30.69" height="2.55"/><rect class="cls-6" x="142.96" y="101.92" width="6.22" height="2.55"/><rect class="cls-6" x="152.18" y="101.92" width="9.87" height="2.55"/><rect class="cls-2" x="185.88" y="101.92" width="15.02" height="2.55"/><rect class="cls-2" x="96.6" y="107.57" width="17.38" height="2.55"/><rect class="cls-2" x="117.2" y="107.57" width="29.19" height="2.55"/><rect class="cls-6" x="149.82" y="107.57" width="34.12" height="2.55"/><rect class="cls-2" x="187.59" y="107.57" width="13.09" height="2.55"/><rect class="cls-6" x="144.03" y="113.85" width="4.08" height="2.55"/><rect class="cls-6" x="155.83" y="113.85" width="1.93" height="2.55"/><rect class="cls-6" x="159.48" y="113.85" width="31.33" height="2.55"/><rect class="cls-2" x="194.68" y="113.85" width="9.2" height="2.55"/><rect class="cls-6" x="149.82" y="113.85" width="3.65" height="2.55"/><rect class="cls-6" x="126" y="113.85" width="16.74" height="2.55"/><rect class="cls-2" x="102.18" y="113.85" width="21.89" height="2.55"/><rect class="cls-2" x="96.6" y="113.85" width="3.65" height="2.55"/><rect class="cls-2" x="96.6" y="120.13" width="3.22" height="2.55"/><rect class="cls-2" x="102.61" y="120.13" width="31.55" height="2.55"/><rect class="cls-6" x="137.59" y="120.13" width="49.79" height="2.55"/><rect class="cls-6" x="189.1" y="120.13" width="14.78" height="2.55"/><rect class="cls-6" x="162.06" y="126.42" width="38.2" height="2.55"/><rect class="cls-2" x="96.6" y="126.42" width="6.01" height="2.55"/><rect class="cls-6" x="105.19" y="126.42" width="30.04" height="2.55"/><rect class="cls-6" x="137.16" y="126.42" width="19.53" height="2.55"/><rect class="cls-6" x="117.2" y="132.7" width="5.79" height="2.55"/><rect class="cls-6" x="96.6" y="132.7" width="18.03" height="2.55"/><rect class="cls-6" x="125.14" y="132.7" width="5.37" height="2.55"/><rect class="cls-6" x="132.65" y="132.7" width="24.25" height="2.55"/><rect class="cls-6" x="160.34" y="132.7" width="10.94" height="2.55"/><rect class="cls-6" x="176.01" y="132.7" width="11.16" height="2.55"/><rect class="cls-6" x="192.74" y="132.7" width="7.51" height="2.55"/><rect class="cls-6" x="167.7" y="138.98" width="12.23" height="2.55"/><rect class="cls-6" x="96.6" y="138.98" width="6.44" height="2.55"/><rect class="cls-6" x="107.55" y="138.98" width="30.69" height="2.55"/><rect class="cls-6" x="142.96" y="138.98" width="6.22" height="2.55"/><rect class="cls-6" x="152.18" y="138.98" width="9.87" height="2.55"/><rect class="cls-6" x="185.88" y="138.98" width="15.02" height="2.55"/><path class="cls-2" d="M343,295.9A36.89,36.89,0,0,1,334.2,285a27.52,27.52,0,0,1-2.28-6.51,28.21,28.21,0,0,1-.51-3.42c-.05-.57.24-2.82-.08-3.2,2.3,2.77,5.67,4.11,8.11,6.62a35.76,35.76,0,0,1,6.24,9,21.54,21.54,0,0,1,1.87,5.91c.14,1,.78,4.46-.13,5.17-.28.22-1.11-.26-1.35-.39A15.11,15.11,0,0,1,343,295.9Z" transform="translate(-300.16 -152.67)"/><path class="cls-7" d="M351.86,320.16a67.41,67.41,0,0,0-15-39.92" transform="translate(-300.16 -152.67)"/><path class="cls-2" d="M346.41,300.28a12.25,12.25,0,0,0-6.3-2.93,23.94,23.94,0,0,0-7,0,45.9,45.9,0,0,0-8.19,1.81,12.06,12.06,0,0,0,6.39,5,19.12,19.12,0,0,0,6.7,1.19c3.36,0,6.69-.8,10.05-.7a2.09,2.09,0,0,1,1.53.38A11.12,11.12,0,0,0,346.41,300.28Z" transform="translate(-300.16 -152.67)"/><path class="cls-7" d="M349.43,304.88a12.24,12.24,0,0,0-7.48-3.65,38.64,38.64,0,0,0-8.73.12" transform="translate(-300.16 -152.67)"/><path class="cls-2" d="M363.27,298c-1.1,1.74-2.7,3.16-3.86,4.84a31.45,31.45,0,0,0-1.79,3.52,17.27,17.27,0,0,1-2.9,4.18.81.81,0,0,1-.63.33.75.75,0,0,1-.46-.36c-1-1.41-.85-3.07-.74-4.68a49.54,49.54,0,0,1,.72-5.68,15.37,15.37,0,0,1,1.62-4.9,18.28,18.28,0,0,1,2.86-3.59,19.49,19.49,0,0,0,3.85-5.81,26.9,26.9,0,0,1,2.17,5,9.12,9.12,0,0,1,0,5.4A8.88,8.88,0,0,1,363.27,298Z" transform="translate(-300.16 -152.67)"/><path class="cls-7" d="M353.16,318c-.46-3.66.76-7.23,1.16-10.83A26.76,26.76,0,0,1,358,296.32" transform="translate(-300.16 -152.67)"/><path class="cls-4" d="M335.81,315.22c.92,5.71,4.5,11.61,9.35,14.58a2.17,2.17,0,0,0,1.14.31h10.83a2.17,2.17,0,0,0,1.14-.31c4.84-3,8.42-8.87,9.34-14.58Z" transform="translate(-300.16 -152.67)"/><rect class="cls-2" x="26.05" y="177.64" width="236.44" height="5.83"/><rect class="cls-2" x="26.05" y="194.64" width="236.44" height="5.83"/><rect class="cls-2" x="39.58" y="179.59" width="3.47" height="63.1"/><rect class="cls-2" x="245.14" y="179.59" width="3.47" height="63.1"/><path class="cls-8" d="M467.77,247.3c1.68-1.25,3.57-2,5.17-3.38a52.25,52.25,0,0,0,4.22-4.33c1.87-2,7-7.21,9.36-3.58a21.51,21.51,0,0,1,3.78,11.19,38,38,0,0,1-.24,7.16,16.66,16.66,0,0,1-1.83,5.69,17.64,17.64,0,0,1-3.3,4.15c-1.1,1.05-2.55,2.63-4,3.12a17.5,17.5,0,0,1-10.57-.23,11.38,11.38,0,0,1-3.4-1.73c-2.87-2.23-3.9-6.16-3.74-9.79a10.59,10.59,0,0,1,.93-4.23A11.37,11.37,0,0,1,467.77,247.3Z" transform="translate(-300.16 -152.67)"/><path class="cls-9" d="M364.3,256.8c-.15-.41-.29-.83-.46-1.25a13.36,13.36,0,0,0-4-5.17c-1.17-.93-2.48-1.66-3.66-2.56-1.44-1.1-3-2-4.46-3.11l-5-3.86c-.37-.29-.84-.59-1.27-.43a1.21,1.21,0,0,0-.63.94c-.3,1.51.66,2.82,1.73,3.79a22,22,0,0,1,4.06,4c2.05,3.17-2.25,2.36-3.76.68a10.5,10.5,0,0,1-1.66-2.87,38.87,38.87,0,0,1-1.44-5.2c-.18-.67-.77-4.06-2.15-2.59a1.75,1.75,0,0,0-.38,1,10,10,0,0,0,0,3.09c-.34-.25-.79.13-1,.51-.44.89-.22,1.76-.73,2.57a4.46,4.46,0,0,0-.73,2.89,7.61,7.61,0,0,0,.85,2.51c1.23,2.45,3.06,5.91,5.46,7.36s5.54,2.59,7.53,4.78a6.51,6.51,0,0,1,1.22,2.42c4,11.66,5.91,24,9,35.94a124,124,0,0,0,6,18.63c1,2.36,3.81,7.34,6,8.79s2.84-.36,5.7-1c2.42-.51,4.37-2.29,6.08-4.09,2.63-2.75,5.85-6.56,6-10.59a23.27,23.27,0,0,0-2.54-10.11c-.36-.72-.75-1.43-1.14-2.13-4-7-9.65-13.06-13.15-20.24q-1.21-2.49-2.39-5c-2.25-4.79-4.42-9.62-6.69-14.4-.56-1.2-1.14-2.39-1.72-3.58A16.57,16.57,0,0,1,364.3,256.8Z" transform="translate(-300.16 -152.67)"/><path class="cls-7" d="M341.3,243c.29,1.06.58,2.12.88,3.17.61,2.21,1.31,4.56,3.1,6" transform="translate(-300.16 -152.67)"/><path class="cls-7" d="M339.74,246.26a20.74,20.74,0,0,0,3.49,7.94,2.47,2.47,0,0,0,.51.56" transform="translate(-300.16 -152.67)"/><path class="cls-9" d="M364.21,256.28a13.73,13.73,0,0,1-.36,2.48" transform="translate(-300.16 -152.67)"/><path class="cls-10" d="M469.1,240.41c0-1.17,0-2.35-.07-3.49l-21.78-.11c.11,6.74-.23,13-.64,18.83a19.4,19.4,0,0,1-1.44,7.19c4.49,1.87,7.67,4.22,12.54,4.72,4.4.45,10.07.55,14-1.52C468.48,257.58,469.28,248.92,469.1,240.41Z" transform="translate(-300.16 -152.67)"/><path class="cls-11" d="M497.91,370.43a15.42,15.42,0,0,0,3.28-.95A11.63,11.63,0,0,0,508,360.6c.8-5.57-2.49-10.83-3.53-16.35-.49-2.63-.5-5.42-1.73-7.8-.57-1.08-1.36-2-1.94-3.11-2-3.84-.42-7.54-.56-11.53-.13-3.75-.5-7.49-.48-11.3a47.27,47.27,0,0,1,.47-7.62c.45-2.62,1.35-5.14,1.84-7.74,2.43-12.89-4.72-28.88-16.66-34.83-10.24-5.1-22-6.49-33.4-6.24-9.86.21-31.62,5.42-37.6,13.27-7.84,10.28-3.66,25.19,4.39,34-1.44,8.21-2.81,16.45-3.69,24.74-.77,7.23.16,15-2.47,21.8a19.84,19.84,0,0,0-1.31,3.92,12.57,12.57,0,0,0,.1,3.82c1,6.75,4.06,13.7,10,17,4.34,2.4,9.53,2.52,14.49,2.48,19.57-.19,39.06-2.23,58.53-4.27C495.63,370.75,496.78,370.63,497.91,370.43Z" transform="translate(-300.16 -152.67)"/><path class="cls-11" d="M441.62,255.08a60.55,60.55,0,0,0-27.72,12,97.07,97.07,0,0,0-14.38,14.21c-4.18,4.94-7.95,11.69-12.9,15.77a93.33,93.33,0,0,1-6.72-11.79,13.54,13.54,0,0,0-1.73-3,23.83,23.83,0,0,1-1.65-1.84,16.19,16.19,0,0,1-1.3-3.57c-.42-1.2-1.3-2.42-2.57-2.53-4.1,3.89-10.52,4.23-15,7.66a1.2,1.2,0,0,0-.57,1.49c.81,4.46,1.49,9,2.32,13.41s1.09,9.25,2.49,13.44c1.3,6,3.48,12.12,7.85,16.49,1.84,1.85,5.14,3.38,7.58,4.35a26,26,0,0,0,10.18,1.4,32,32,0,0,0,19.36-7,62.92,62.92,0,0,0,6.15-6.07c3.55-3.85,7.12-7.28,9.5-11.93,1.61-3.13,3.33-6.21,5-9.28,1-1.89,7-15,9.85-14.4,1.45.3,2.94.53,4.46.74,0-3.78.24-7.55.42-11.32.09-2,.19-4,.2-6.06,0-1.37-.7-3.34-.37-4.6a20.06,20.06,0,0,1,4.37-8.12C444.84,254.63,443.22,254.82,441.62,255.08Z" transform="translate(-300.16 -152.67)"/><path class="cls-11" d="M466.29,255.53c4.59.63,4.84.75,9.41,1.28,15.67,1.83,30.35,18.4,39.59,29.8,7.26,8.94,21,25.07,17.38,37.65-2.28,7.86-12.19,9.85-19.26,8.59-10.17-1.8-17.29-9.9-23.2-17.74-2.09-2.77-18.6-31.43-19.47-31.25-1.44.3-2.94.53-4.45.74Z" transform="translate(-300.16 -152.67)"/><path class="cls-12" d="M462.15,217.21a16.68,16.68,0,0,0-8.86-8.27,11.77,11.77,0,0,0-7.92-.9,16.93,16.93,0,0,0-3.51,1.56,13.28,13.28,0,0,0-2.62,1.68,14.43,14.43,0,0,0-3.83,7.31q-.71,3.14-1.09,6.32a15.06,15.06,0,0,1-2.63,4.6A1,1,0,0,0,432,231a7.66,7.66,0,0,0,1.82.49c0,1.33,0,2.67,0,4,.13,3.3.73,7,3.42,8.92,4.67,3.34,15,.43,19.09-2.84a20.77,20.77,0,0,0,7-12A19.86,19.86,0,0,0,462.15,217.21Z" transform="translate(-300.16 -152.67)"/><path class="cls-12" d="M433.82,234a2.49,2.49,0,0,0,2,.34" transform="translate(-300.16 -152.67)"/><path class="cls-8" d="M438.1,223.17a6.5,6.5,0,0,1-.48-1.14c-.36-1.19.29-1.9-.86-2.94a6,6,0,0,0-2.25-.82.68.68,0,0,1-.58-.83c1.12-4.67,5-8.45,9.48-10.37,4.83-2.09,10.24-2.34,15.5-2.21,3.91.09,8.16.53,11,3.22,3.23,3.07,3.67,7.83,5.29,11.76,1.71,4.14,5.2,7.33,8,10.77s5.06,7.38,5.72,11.73c.49,3.18.1,7.06-1.84,9.74s-5.5,4.06-8.43,5.48c-4.63,2.25-8.85,5.55-13.86,6.74a21,21,0,0,1-15.27-2.66c-2.51-1.47-5-3.77-5-6.68,0-1.14.38-2.26.37-3.41a7.7,7.7,0,0,0-2.33-4.88,51.49,51.49,0,0,1-3.79-4,8.06,8.06,0,0,1-.41-8.65c1.06-2,2.24-3.55,2-5.89C440.2,226.1,439,224.88,438.1,223.17Z" transform="translate(-300.16 -152.67)"/><path class="cls-8" d="M459.05,196.89a6.65,6.65,0,0,1,4.59-.66,5.83,5.83,0,0,1,4.06,1.91c3.1,4.24-3.39,9.87-7.57,9.1C455.17,206.32,455.35,199.34,459.05,196.89Z" transform="translate(-300.16 -152.67)"/><path class="cls-13" d="M416.5,316.11c1.12-5.25,1.94-5.81,3.05-11.07.59-2.78,1.84-5,3-7.63" transform="translate(-300.16 -152.67)"/><path class="cls-13" d="M499.92,326.06c-.48-7.66-3-15.79-4.81-23.26" transform="translate(-300.16 -152.67)"/><path class="cls-8" d="M471.64,272.81c-.8-.08-1.61-.21-2.39-.22a25.21,25.21,0,0,0-4.21.72,5,5,0,0,1-4.08-.76,3.21,3.21,0,0,1-.07-4.35c1.31-1.37,3.93-1.65,5.66-2.06a11.39,11.39,0,0,0,4.27-1.71c2.15-1.62,3.16-5.15,5.7-6.22,2.27-.95,6.05.58,6.5,3.16.34,1.88-1,3.66-2.43,4.88s-3.21,2.19-4.28,3.76a8.66,8.66,0,0,1-1.65,2.25A4.17,4.17,0,0,1,471.64,272.81Z" transform="translate(-300.16 -152.67)"/><path class="cls-11" d="M481.67,251.3a4.74,4.74,0,0,0-1.26-3.4,5.17,5.17,0,0,0-2-.94,72.07,72.07,0,0,0-34-1.69,12.13,12.13,0,0,0-4.57,1.58,8.36,8.36,0,0,0-3.36,7.21,14.76,14.76,0,0,0,2.87,7.68c6.19,9,17.65,12.33,28,9.54C475.35,269.12,482.09,259.45,481.67,251.3Z" transform="translate(-300.16 -152.67)"/><path class="cls-13" d="M456.18,272.6c-7.45-.43-15.59-4.3-17.6-12.11" transform="translate(-300.16 -152.67)"/><path class="cls-13" d="M386.56,297a10.94,10.94,0,0,0-.41,2.95,13.22,13.22,0,0,1-.06,2.27,11.88,11.88,0,0,1-1.95,3.79,14,14,0,0,0-2,7.29" transform="translate(-300.16 -152.67)"/><path class="cls-13" d="M376.58,280c-1,1.74-3.06,2.58-4.95,3.3-4.32,1.64-8.83,4-13.14,5.64" transform="translate(-300.16 -152.67)"/><path class="cls-13" d="M382.85,308.25a35.25,35.25,0,0,1,1.59,6.28" transform="translate(-300.16 -152.67)"/><path class="cls-13" d="M378,328.27l2.89,1.07" transform="translate(-300.16 -152.67)"/><path class="cls-13" d="M360,288.21a56.23,56.23,0,0,0-1.4-6.9" transform="translate(-300.16 -152.67)"/><path class="cls-13" d="M362,287.5a44.87,44.87,0,0,0-1.68-7.23" transform="translate(-300.16 -152.67)"/><path class="cls-13" d="M362.07,279.46a21,21,0,0,1,.64,2c.21.83.36,1.67.57,2.51s.51,1.73.79,2.58" transform="translate(-300.16 -152.67)"/><path class="cls-13" d="M363.49,278.76a1,1,0,0,0,.21.77c1.13,1.94,1.27,4.29,2.16,6.34" transform="translate(-300.16 -152.67)"/><path class="cls-13" d="M366.39,277.68q1.16,3.4,2.32,6.83" transform="translate(-300.16 -152.67)"/><path class="cls-13" d="M367.59,277.15a12.06,12.06,0,0,1,1.85,3.42,24.25,24.25,0,0,0,1.15,3.33" transform="translate(-300.16 -152.67)"/><path class="cls-13" d="M369.89,276c.52.94,1.42,1.63,1.95,2.56.26.45.42.94.66,1.39a8.15,8.15,0,0,1,1,2c0,.17.08.38.24.43" transform="translate(-300.16 -152.67)"/><path class="cls-13" d="M371.58,275c0-.05-.08-.06-.1,0a.15.15,0,0,0,0,.14c.43.55.85,1.11,1.25,1.68a13,13,0,0,1,2.39,4.66" transform="translate(-300.16 -152.67)"/><path class="cls-13" d="M520.67,327.11a4.78,4.78,0,0,0,4.65-2.18" transform="translate(-300.16 -152.67)"/><path class="cls-1" d="M456.39,204.39c3.19.91,6.58,1.81,9.78.93" transform="translate(-300.16 -152.67)"/><path class="cls-4" d="M498.83,395.84l-1.94.64c-11.5,3.75-23.16,7.54-35.24,8.31-9.94.63-19.89-.8-29.75-2.22-11.29-1.63-22.27-1.85-25-14.39A76,76,0,0,1,405.42,367c.27-3.9.9-7.93,3.11-11.16a43.68,43.68,0,0,1,4.71-5.11c13.27-13.88,7.44-34.17,18.61-47.74,10.66-13,29.08-16.07,43.95-8.82,9.44,4.6,18,12.81,19.53,23.49,1.77,12.16,1.23,24.05,9.2,34.5,2,2.57,4.33,4.86,5.82,7.73,4.59,8.8,4.46,25.74-4,32.25A25.67,25.67,0,0,1,498.83,395.84Z" transform="translate(-300.16 -152.67)"/><polygon class="cls-4" points="254.6 174.38 242.73 174.38 238.85 152.24 258.97 152.24 254.6 174.38"/><path class="cls-14" d="M552.53,311.81a19.09,19.09,0,0,1,6.36-1.81,2.35,2.35,0,0,1,1.49.33c1.17.75.84,2,.49,3.06l-2.15,6.53a1.74,1.74,0,0,1-1.77,1.21,47.62,47.62,0,0,0-10.4.42" transform="translate(-300.16 -152.67)"/><path class="cls-2" d="M500.36,194.37H494.1V188.1h6.26Z" transform="translate(-300.16 -152.67)"/><path class="cls-11" d="M515.08,194.37H503.43l6.07-6.82Zm-9.56-.94h7.58L509.47,189Z" transform="translate(-300.16 -152.67)"/><rect class="cls-2" x="516.1" y="190.62" width="9.1" height="0.94" transform="translate(-280.18 276.99) rotate(-45.63)"/><rect class="cls-2" x="519.8" y="190.62" width="9.1" height="0.94" transform="translate(-279.05 279.67) rotate(-45.64)"/><path class="cls-11" d="M532.36,190.41V191h-.25c-.2,0-.32.11-.32.37v1.69a1,1,0,0,1-1.12,1.09h-.32v-.58h.17a.5.5,0,0,0,.56-.57v-1.61c0-.42.13-.59.4-.68-.27-.09-.4-.26-.4-.68v-1.61a.5.5,0,0,0-.56-.57h-.17v-.58h.32a1,1,0,0,1,1.12,1.09V190c0,.26.12.37.32.37Z" transform="translate(-300.16 -152.67)"/><path class="cls-2" d="M537.09,194.81c-1.38,0-2.47-1.67-2.47-3.8s1.09-3.79,2.47-3.79,2.47,1.66,2.47,3.79S538.47,194.81,537.09,194.81Zm0-6.65c-.72,0-1.53,1.17-1.53,2.85s.81,2.86,1.53,2.86,1.53-1.17,1.53-2.86S537.81,188.16,537.09,188.16Z" transform="translate(-300.16 -152.67)"/><path class="cls-11" d="M543,194.81c-1.39,0-2.47-1.67-2.47-3.8s1.08-3.79,2.47-3.79,2.46,1.66,2.46,3.79S544.39,194.81,543,194.81Zm0-6.65c-.73,0-1.53,1.17-1.53,2.85s.8,2.86,1.53,2.86,1.52-1.17,1.52-2.86S543.73,188.16,543,188.16Z" transform="translate(-300.16 -152.67)"/><polyline class="cls-1" points="174.77 17.36 178.85 21.68 174.77 24.55"/><polyline class="cls-1" points="178.13 17.36 182.2 21.68 178.13 24.55"/><ellipse class="cls-1" cx="187" cy="20.72" rx="2.16" ry="3.36"/><line class="cls-1" x1="194.19" y1="17.84" x2="194.19" y2="24.55"/><rect class="cls-2" x="197.31" y="18.32" width="3.84" height="6.24"/><rect class="cls-1" x="204.03" y="18.32" width="5.76" height="6.24"/><rect class="cls-2" x="212.42" y="18.32" width="6.48" height="6.24"/><path class="cls-1" d="M523.39,168.53c.82-.23,1.58.66,1.66,1.5a15.69,15.69,0,0,1-.29,2.54c-.06.85.31,1.86,1.15,2a1,1,0,0,0-1.11.69,3.5,3.5,0,0,0,0,1.44,4,4,0,0,1-.46,2.72,1.86,1.86,0,0,1-2.44.67" transform="translate(-300.16 -152.67)"/><path class="cls-1" d="M528.87,168.83a14.6,14.6,0,0,1,0,11" transform="translate(-300.16 -152.67)"/><path class="cls-3" d="M531.81,168.57a14.86,14.86,0,0,1-.32,13" transform="translate(-300.16 -152.67)"/><path class="cls-1" d="M470.74,168.53c-.82-.23-1.58.66-1.66,1.5a16.89,16.89,0,0,0,.29,2.54c.06.85-.31,1.86-1.14,2a1,1,0,0,1,1.1.69,3.33,3.33,0,0,1,0,1.44,4,4,0,0,0,.46,2.72,1.87,1.87,0,0,0,2.45.67" transform="translate(-300.16 -152.67)"/><path class="cls-1" d="M465.26,168.83a14.55,14.55,0,0,0,0,11" transform="translate(-300.16 -152.67)"/><path class="cls-3" d="M462.32,168.57a14.83,14.83,0,0,0,.33,13" transform="translate(-300.16 -152.67)"/><polyline class="cls-1" points="278.42 109.21 274.41 113.47 278.42 116.3"/><polyline class="cls-1" points="275.12 109.21 271.1 113.47 275.12 116.3"/><path class="cls-14" d="M564.4,265.42c0,1.83,1,3.31,2.13,3.31s2.12-1.48,2.12-3.31-.95-3.31-2.12-3.31S564.4,263.6,564.4,265.42Z" transform="translate(-300.16 -152.67)"/><line class="cls-1" x1="259.28" y1="109.45" x2="259.28" y2="116.06"/><rect class="cls-2" x="252.43" y="109.68" width="3.78" height="6.14"/><rect class="cls-14" x="243.92" y="109.68" width="5.67" height="6.14"/><rect class="cls-2" x="234.94" y="109.68" width="6.38" height="6.14"/><path class="cls-3" d="M530.82,259.62c-.8-.24-1.55.64-1.63,1.47a14.2,14.2,0,0,0,.29,2.5c0,.84-.31,1.84-1.13,2a.92.92,0,0,1,1.08.68,3.24,3.24,0,0,1,0,1.42,4,4,0,0,0,.44,2.68,1.86,1.86,0,0,0,2.42.66" transform="translate(-300.16 -152.67)"/><path class="cls-3" d="M525.43,260a14.35,14.35,0,0,0,0,10.87" transform="translate(-300.16 -152.67)"/><path class="cls-14" d="M582.7,259.62c.81-.24,1.56.64,1.64,1.47a16.37,16.37,0,0,1-.29,2.5c0,.84.31,1.84,1.13,2a.92.92,0,0,0-1.08.68,3.24,3.24,0,0,0,0,1.42,3.93,3.93,0,0,1-.45,2.68,1.84,1.84,0,0,1-2.41.66" transform="translate(-300.16 -152.67)"/><path class="cls-2" d="M367.84,176.53a10.53,10.53,0,0,0-1.2,1.86l.19.05a1.93,1.93,0,0,1,1.25,2.41,1.87,1.87,0,0,1-2.38,1.23l-.2-.09a11.18,11.18,0,0,0-.1,2.24,1.17,1.17,0,0,1,.2-.06,1.92,1.92,0,0,1,2.27,1.48,1.87,1.87,0,0,1-1.43,2.26,2,2,0,0,1-.24,0,11.74,11.74,0,0,0,1,2,1.37,1.37,0,0,1,.16-.18,1.89,1.89,0,0,1,2.69.15,1.92,1.92,0,0,1-.11,2.7l-.22.16a11.75,11.75,0,0,0,1.92,1.26,1.19,1.19,0,0,1,.05-.26,1.87,1.87,0,0,1,2.38-1.23,2,2,0,0,1,1.26,2.42c0,.09-.08.18-.12.27a11.75,11.75,0,0,0,2.29.14,1.31,1.31,0,0,1-.09-.28,1.88,1.88,0,0,1,1.44-2.27,1.92,1.92,0,0,1,2.27,1.48,1.65,1.65,0,0,1,0,.31,11.21,11.21,0,0,0,2-1l-.23-.2a1.92,1.92,0,0,1,.11-2.7,1.89,1.89,0,0,1,2.69.14,2.48,2.48,0,0,1,.19.26,12,12,0,0,0,1.24-1.94,1.59,1.59,0,0,1-.3-.06,2,2,0,0,1-1.25-2.42,1.87,1.87,0,0,1,2.38-1.22,2.36,2.36,0,0,1,.28.12,11,11,0,0,0,.09-2.3,2.14,2.14,0,0,1-.27.09,1.93,1.93,0,0,1-2.27-1.48,1.89,1.89,0,0,1,1.44-2.27,2.4,2.4,0,0,1,.28,0,12.43,12.43,0,0,0-1.07-2,1.06,1.06,0,0,1-.17.2,1.92,1.92,0,0,1-2.58-2.85,1.49,1.49,0,0,1,.2-.15,12.14,12.14,0,0,0-1.9-1.24c0,.08,0,.15,0,.23a1.87,1.87,0,0,1-2.38,1.22,1.94,1.94,0,0,1-1.26-2.41l.09-.21a11.92,11.92,0,0,0-2.23-.12,1.17,1.17,0,0,1,.06.2,1.87,1.87,0,0,1-1.43,2.26,1.93,1.93,0,0,1-2.28-1.47,1.46,1.46,0,0,1,0-.22,11.16,11.16,0,0,0-2,1l.15.13a1.92,1.92,0,0,1-.11,2.7,1.89,1.89,0,0,1-2.69-.15A1.67,1.67,0,0,1,367.84,176.53Zm5.5,3.34a5.32,5.32,0,1,1-.3,7.48A5.31,5.31,0,0,1,373.34,179.87Z" transform="translate(-300.16 -152.67)"/><path class="cls-7" d="M372.3,178.73a6.86,6.86,0,1,1-.38,9.65A6.79,6.79,0,0,1,372.3,178.73Z" transform="translate(-300.16 -152.67)"/><path class="cls-2" d="M339.13,187.25a16.56,16.56,0,0,0-1.94,2.81c.1,0,.2,0,.3.08a3,3,0,0,1,1.81,3.78,2.91,2.91,0,0,1-3.74,1.77,2.8,2.8,0,0,1-.3-.15A18.11,18.11,0,0,0,335,199a2.8,2.8,0,0,1,.31-.09,3,3,0,0,1,3.43,2.39,2.9,2.9,0,0,1-2.32,3.42l-.38,0a18,18,0,0,0,1.5,3.17,2,2,0,0,1,.25-.26,3,3,0,0,1,3.84,4.51,2.71,2.71,0,0,1-.35.24,18.24,18.24,0,0,0,2.89,2,2.92,2.92,0,0,1,.1-.4,2.89,2.89,0,0,1,3.73-1.77,3,3,0,0,1,1.81,3.78,2.57,2.57,0,0,1-.19.41,17.35,17.35,0,0,0,3.52.33,3.06,3.06,0,0,1-.13-.43,2.9,2.9,0,0,1,2.33-3.42,3,3,0,0,1,3.43,2.39,3.91,3.91,0,0,1,.05.48,17.1,17.1,0,0,0,3.19-1.49,3.51,3.51,0,0,1-.34-.33,2.92,2.92,0,1,1,4.44-3.79,2.21,2.21,0,0,1,.28.4,16.79,16.79,0,0,0,2-2.92,3.69,3.69,0,0,1-.45-.11,3,3,0,0,1-1.81-3.78,2.9,2.9,0,0,1,3.74-1.77,3.29,3.29,0,0,1,.42.21,17.48,17.48,0,0,0,.25-3.54,2.77,2.77,0,0,1-.41.12,3,3,0,0,1-3.44-2.39A2.9,2.9,0,0,1,369,193a2.17,2.17,0,0,1,.44,0,18,18,0,0,0-1.54-3.19,1.79,1.79,0,0,1-.27.28,3,3,0,0,1-3.84-4.51,2.27,2.27,0,0,1,.32-.22,17.47,17.47,0,0,0-2.88-2,2.09,2.09,0,0,1-.08.34,2.89,2.89,0,0,1-3.73,1.77,3,3,0,0,1-1.81-3.78c0-.11.1-.21.15-.32a18.1,18.1,0,0,0-3.44-.3,2.8,2.8,0,0,1,.09.31,2.91,2.91,0,0,1-2.33,3.42,3,3,0,0,1-3.43-2.39,1.84,1.84,0,0,1,0-.33,16.75,16.75,0,0,0-3.09,1.46,2.08,2.08,0,0,1,.21.21,2.92,2.92,0,1,1-4.43,3.79A1.57,1.57,0,0,1,339.13,187.25Zm5.81,2.47a12.08,12.08,0,1,1-1.23,16.94A11.94,11.94,0,0,1,344.94,189.72Z" transform="translate(-300.16 -152.67)"/><path class="cls-2" d="M359,211.13A13.72,13.72,0,1,0,340.7,205,13.71,13.71,0,0,0,359,211.13ZM344.66,203a9.11,9.11,0,0,1,3.9-12.31,9.22,9.22,0,1,1-3.9,12.31Z" transform="translate(-300.16 -152.67)"/><path class="cls-7" d="M343.22,203.75a10.7,10.7,0,1,1,14.49,4.83A10.85,10.85,0,0,1,343.22,203.75Z" transform="translate(-300.16 -152.67)"/><path class="cls-2" d="M554,222.12a6.3,6.3,0,0,1,9.87-5.26,7.43,7.43,0,0,1,6-2.55c3.26.15,6.41,2.35,6.67,5.38a7.37,7.37,0,0,1,5.43,7.32,7.29,7.29,0,0,1-2.64,5.28A4.41,4.41,0,0,1,579,236a3.72,3.72,0,0,1-1.68,1.58,4.43,4.43,0,0,1-3.56.18l-.09,6a.37.37,0,0,1-.67.21l-3.12-4.51a4,4,0,0,1-5.71-3.23,5.17,5.17,0,0,1-2.57.54,5.23,5.23,0,0,1-5-4.82,5.38,5.38,0,0,1-5.25.11,4.67,4.67,0,0,1-2.28-2.53A5.27,5.27,0,0,1,554,222.12Z" transform="translate(-300.16 -152.67)"/><path class="cls-13" d="M575.46,229.42a4.29,4.29,0,0,1,3.77,2.66" transform="translate(-300.16 -152.67)"/><path class="cls-13" d="M556.62,231.43a5.24,5.24,0,0,1,5.49-5" transform="translate(-300.16 -152.67)"/><path class="cls-13" d="M553.53,222.12a5.25,5.25,0,0,1,3,.7" transform="translate(-300.16 -152.67)"/><path class="cls-13" d="M559.49,218.1a4.21,4.21,0,0,1,4,4.41" transform="translate(-300.16 -152.67)"/><path class="cls-13" d="M563.18,234.12a3.74,3.74,0,0,1-4.07-3.36" transform="translate(-300.16 -152.67)"/><path class="cls-13" d="M551.44,228.66a3.36,3.36,0,0,1,2.07-4.27" transform="translate(-300.16 -152.67)"/><path class="cls-13" d="M577.06,233.57a2.54,2.54,0,0,1-3.2,1.64" transform="translate(-300.16 -152.67)"/><path class="cls-13" d="M570.94,220.71a7.05,7.05,0,0,1,5.47-1" transform="translate(-300.16 -152.67)"/><path class="cls-13" d="M577.61,222.9a4.33,4.33,0,0,1,1.74,3.38" transform="translate(-300.16 -152.67)"/><path class="cls-13" d="M566.35,224.51a3.26,3.26,0,0,1,3.23,5.19" transform="translate(-300.16 -152.67)"/><path class="cls-13" d="M565.92,230.88a1.88,1.88,0,0,0-.6,1.65,1.9,1.9,0,0,0,1,1.42" transform="translate(-300.16 -152.67)"/><polyline class="cls-15" points="163.41 251.97 163.31 248.86 162.49 221.24 161.87 200.47 161.69 194.65 161.36 183.46 161.19 177.63 161.03 172.27 160.91 168.33 160.85 166.14 160.38 150.48 160.17 143.26 160.14 142.46 160.11 141.53 160.09 140.82 160.08 140.45"/><path class="cls-15" d="M495.52,393.23l-1.77.6c-10.55,3.55-21.23,7.13-32.3,7.86-9.11.6-18.22-.75-27.26-2.1-10.35-1.54-20.41-1.75-22.87-13.61a73.84,73.84,0,0,1-1.39-20c.25-3.69.83-7.5,2.85-10.55a40.39,40.39,0,0,1,4.32-4.84c12.16-13.13,6.81-32.32,17-45.15,9.78-12.26,26.65-15.2,40.28-8.34,8.65,4.35,16.47,12.12,17.89,22.22,1.63,11.49,1.13,22.75,8.44,32.62,1.79,2.43,4,4.6,5.33,7.31,4.2,8.33,4.09,24.35-3.66,30.5A23.49,23.49,0,0,1,495.52,393.23Z" transform="translate(-300.16 -152.67)"/><path class="cls-15" d="M490.12,320.71a19.82,19.82,0,0,1,1.05,7.12" transform="translate(-300.16 -152.67)"/><path class="cls-15" d="M491.77,331.66a26.24,26.24,0,0,0,5.73,17.74" transform="translate(-300.16 -152.67)"/><path class="cls-15" d="M432.13,337.13a21.47,21.47,0,0,1-1.63,7.1" transform="translate(-300.16 -152.67)"/><path class="cls-15" d="M433.73,344.5l-.53,3.83" transform="translate(-300.16 -152.67)"/><path class="cls-13" d="M385.39,330.33a23.45,23.45,0,0,0,13.09-3.64" transform="translate(-300.16 -152.67)"/><path class="cls-13" d="M509.52,310.87c.46.63.93,1.26,1.39,1.9" transform="translate(-300.16 -152.67)"/><path class="cls-13" d="M510.83,309l2.19,3" transform="translate(-300.16 -152.67)"/><path class="cls-13" d="M515.5,291.49a12.62,12.62,0,0,1,4.12,4.35" transform="translate(-300.16 -152.67)"/><path class="cls-13" d="M443.07,252.66a5.54,5.54,0,0,1-.26,2.46" transform="translate(-300.16 -152.67)"/><path class="cls-13" d="M446.9,252.94a6.86,6.86,0,0,0-1.1,3" transform="translate(-300.16 -152.67)"/><path class="cls-13" d="M472.87,253.75a8,8,0,0,0,.27,3" transform="translate(-300.16 -152.67)"/><path class="cls-13" d="M412.46,274.53a53.77,53.77,0,0,0-6.29,7.11" transform="translate(-300.16 -152.67)"/><path class="cls-13" d="M410.79,279.16,407.52,283" transform="translate(-300.16 -152.67)"/><path class="cls-2" d="M433.46,169.66a11.14,11.14,0,0,0-12.4-11,11.13,11.13,0,0,0-5.78,19.65,8.27,8.27,0,0,1,3.05,5.46l.47,4.31a1.87,1.87,0,0,0,1.87,1.67l3.55,0a1.87,1.87,0,0,0,1.85-1.69l.43-4.32a8.15,8.15,0,0,1,2.95-5.46A11.12,11.12,0,0,0,433.46,169.66Z" transform="translate(-300.16 -152.67)"/><path class="cls-4" d="M422.45,191.23h0a4.37,4.37,0,0,1-4.39-4.34V185l8.74-.05v1.9A4.37,4.37,0,0,1,422.45,191.23Z" transform="translate(-300.16 -152.67)"/><path class="cls-7" d="M420.74,185.91c-.78-3.65-1.54-7.3-2.45-10.92-.49-1.92-3.14-7.59,1.12-6.94a2.48,2.48,0,0,1,2,2,1.71,1.71,0,0,1-.36,1.45,1.1,1.1,0,0,1-1.39.22,1.21,1.21,0,0,1-.48-.85,2.52,2.52,0,0,1,1.13-2.29c.92-.67,2.18-1.43,3.36-1a2.73,2.73,0,0,1,1.37,1.57,2.26,2.26,0,0,1,.17,1.42,1,1,0,0,1-1.07.79,1,1,0,0,1-.77-.75,2,2,0,0,1,.08-1.13,2.9,2.9,0,0,1,1.73-1.88,1.94,1.94,0,0,1,2.29.85,3,3,0,0,1,.13,1.73c-.35,2.74-1.24,5.29-1.74,8l-1.38,7.48" transform="translate(-300.16 -152.67)"/><path class="cls-16" d="M405.22,166.86l3.4.48" transform="translate(-300.16 -152.67)"/><line class="cls-16" x1="108.05" y1="5.92" x2="110.66" y2="8.29"/><path class="cls-16" d="M419,153.22c.17.88.34,2.31.51,3.19" transform="translate(-300.16 -152.67)"/><path class="cls-16" d="M426.27,152.92c-.25,1.87-.42,3.15-.52,3.92" transform="translate(-300.16 -152.67)"/><path class="cls-16" d="M436.78,160.43l-3.38,2.37" transform="translate(-300.16 -152.67)"/><path class="cls-16" d="M436,168.1l3.66.24" transform="translate(-300.16 -152.67)"/><path class="cls-17" d="M420,161.17a8.57,8.57,0,0,0-6.15,10.72" transform="translate(-300.16 -152.67)"/></svg>