<svg id="dark" xmlns="http://www.w3.org/2000/svg" viewBox="0 0 284.05 250.97"><defs><style>.cls-1,.cls-10,.cls-14,.cls-15,.cls-17,.cls-18,.cls-19,.cls-20,.cls-3,.cls-5,.cls-7{fill:none;}.cls-1,.cls-7{stroke:#524bd6;}.cls-1,.cls-10,.cls-13,.cls-14,.cls-15,.cls-16,.cls-17,.cls-18,.cls-19,.cls-20,.cls-3,.cls-5,.cls-7,.cls-9{stroke-linecap:round;stroke-linejoin:round;}.cls-16,.cls-2{fill:#f7f8fc;}.cls-3{stroke:#f7f8fc;}.cls-13,.cls-4,.cls-9{fill:#fff;}.cls-14,.cls-5{stroke:#000;}.cls-5{stroke-width:6px;}.cls-6{fill:#abc8f4;}.cls-10,.cls-13,.cls-14,.cls-18,.cls-19,.cls-20,.cls-7,.cls-9{stroke-width:0.5px;}.cls-8{fill:#1c1c1b;}.cls-10,.cls-16,.cls-17,.cls-9{stroke:#0d2438;}.cls-11{fill:#ff4440;}.cls-12{fill:#524bd6;}.cls-13,.cls-20{stroke:#1c1c1b;}.cls-15{stroke:#fff;}.cls-18{stroke:#344758;}.cls-19{stroke:#303131;}</style></defs><path class="cls-1" d="M305.58,229.15h0A2.55,2.55,0,0,0,303,231.7v1.81a2.54,2.54,0,0,1-.74,1.8l-.77.76.53.53a2.54,2.54,0,0,1,.75,1.8v1.54a2.54,2.54,0,0,0,2.54,2.54h.42" transform="translate(-301.02 -153.09)"/><path class="cls-1" d="M323.54,229.15h0a2.55,2.55,0,0,1,2.55,2.55v1.81a2.54,2.54,0,0,0,.74,1.8l.77.76-.53.53a2.53,2.53,0,0,0-.75,1.8v1.54a2.54,2.54,0,0,1-2.54,2.54h-.42" transform="translate(-301.02 -153.09)"/><path class="cls-1" d="M309.41,242.75l-1.08,2.79" transform="translate(-301.02 -153.09)"/><path class="cls-1" d="M361.36,242.75l-1.08,2.79" transform="translate(-301.02 -153.09)"/><path class="cls-1" d="M372.75,242.75l-1.08,2.79" transform="translate(-301.02 -153.09)"/><path class="cls-1" d="M374.7,242.75l-1.08,2.79" transform="translate(-301.02 -153.09)"/><rect class="cls-2" x="11.75" y="78.84" width="7.5" height="7.5"/><path class="cls-1" d="M336,228a18.58,18.58,0,0,0-.09,16.57" transform="translate(-301.02 -153.09)"/><path class="cls-1" d="M376.76,228a18.54,18.54,0,0,1,.09,16.57" transform="translate(-301.02 -153.09)"/><rect class="cls-2" x="48.51" y="80.78" width="10.12" height="4.8"/><polygon class="cls-2" points="69.85 85.57 62.87 85.57 62.87 80.78 69.85 85.57"/><line class="cls-3" x1="69.26" y1="81.06" x2="75.37" y2="81.06"/><line class="cls-1" x1="71.94" y1="83.26" x2="75.37" y2="83.26"/><line class="cls-1" x1="43.96" y1="77.09" x2="43.96" y2="91.09"/><rect class="cls-4" x="214.69" y="173.35" width="42.13" height="3.35"/><path class="cls-5" d="M457,322.36a18.75,18.75,0,0,0,5.89-23.09c-1.61-3.44-4.23-6.37-5.56-9.92-2.07-5.55-.74-11.72.62-17.48" transform="translate(-301.02 -153.09)"/><rect x="133.73" y="167.46" width="49.52" height="3.92" rx="1.35"/><rect class="cls-2" x="80.98" y="54.88" width="157.94" height="94.83" rx="4.01"/><rect class="cls-4" x="81.76" y="62.34" width="156.34" height="80.18"/><rect class="cls-2" x="96.1" y="70.15" width="17.29" height="2.54"/><rect class="cls-2" x="116.6" y="70.15" width="29.04" height="2.54"/><rect class="cls-2" x="149.05" y="70.15" width="33.95" height="2.54"/><rect class="cls-2" x="186.63" y="70.15" width="13.02" height="2.54"/><rect class="cls-6" x="143.29" y="76.4" width="4.06" height="2.54"/><rect class="cls-6" x="155.03" y="76.4" width="1.92" height="2.54"/><rect class="cls-2" x="158.66" y="76.4" width="31.17" height="2.54"/><rect class="cls-2" x="193.67" y="76.4" width="9.15" height="2.54"/><rect class="cls-6" x="149.05" y="76.4" width="3.63" height="2.54"/><rect class="cls-2" x="125.35" y="76.4" width="16.65" height="2.54"/><rect class="cls-2" x="101.65" y="76.4" width="21.78" height="2.54"/><rect class="cls-2" x="96.1" y="76.4" width="3.63" height="2.54"/><rect class="cls-2" x="96.1" y="82.65" width="3.2" height="2.54"/><rect class="cls-2" x="102.08" y="82.65" width="31.38" height="2.54"/><rect class="cls-2" x="136.88" y="82.65" width="49.53" height="2.54"/><rect class="cls-2" x="188.12" y="82.65" width="14.7" height="2.54"/><rect class="cls-2" x="161.22" y="88.9" width="38" height="2.54"/><rect class="cls-2" x="96.1" y="88.9" width="5.98" height="2.54"/><rect class="cls-2" x="104.64" y="88.9" width="29.89" height="2.54"/><rect class="cls-6" x="136.45" y="88.9" width="19.43" height="2.54"/><rect class="cls-2" x="116.6" y="95.15" width="5.76" height="2.54"/><rect class="cls-2" x="96.1" y="95.15" width="17.93" height="2.54"/><rect class="cls-2" x="124.5" y="95.15" width="5.34" height="2.54"/><rect class="cls-2" x="131.97" y="95.15" width="24.12" height="2.54"/><rect class="cls-6" x="159.51" y="95.15" width="10.89" height="2.54"/><rect class="cls-6" x="175.1" y="95.15" width="11.1" height="2.54"/><rect class="cls-2" x="191.75" y="95.15" width="7.47" height="2.54"/><rect class="cls-6" x="166.84" y="101.4" width="12.17" height="2.54"/><rect class="cls-2" x="96.1" y="101.4" width="6.4" height="2.54"/><rect class="cls-2" x="106.99" y="101.4" width="30.53" height="2.54"/><rect class="cls-6" x="142.22" y="101.4" width="6.19" height="2.54"/><rect class="cls-6" x="151.4" y="101.4" width="9.82" height="2.54"/><rect class="cls-2" x="184.92" y="101.4" width="14.94" height="2.54"/><rect class="cls-2" x="96.1" y="107.02" width="17.29" height="2.54"/><rect class="cls-2" x="116.6" y="107.02" width="29.04" height="2.54"/><rect class="cls-6" x="149.05" y="107.02" width="33.95" height="2.54"/><rect class="cls-2" x="186.63" y="107.02" width="13.02" height="2.54"/><rect class="cls-6" x="143.29" y="113.27" width="4.06" height="2.54"/><rect class="cls-6" x="155.03" y="113.27" width="1.92" height="2.54"/><rect class="cls-6" x="158.66" y="113.27" width="31.17" height="2.54"/><rect class="cls-2" x="193.67" y="113.27" width="9.15" height="2.54"/><rect class="cls-6" x="149.05" y="113.27" width="3.63" height="2.54"/><rect class="cls-6" x="125.35" y="113.27" width="16.65" height="2.54"/><rect class="cls-2" x="101.65" y="113.27" width="21.78" height="2.54"/><rect class="cls-2" x="96.1" y="113.27" width="3.63" height="2.54"/><rect class="cls-2" x="96.1" y="119.51" width="3.2" height="2.54"/><rect class="cls-2" x="102.08" y="119.51" width="31.38" height="2.54"/><rect class="cls-6" x="136.88" y="119.51" width="49.53" height="2.54"/><rect class="cls-2" x="188.12" y="119.51" width="14.7" height="2.54"/><rect class="cls-6" x="161.22" y="125.76" width="38" height="2.54"/><rect class="cls-2" x="96.1" y="125.76" width="5.98" height="2.54"/><rect class="cls-6" x="104.64" y="125.76" width="29.89" height="2.54"/><rect class="cls-6" x="136.45" y="125.76" width="19.43" height="2.54"/><rect class="cls-6" x="116.6" y="132.01" width="5.76" height="2.54"/><rect class="cls-6" x="96.1" y="132.01" width="17.93" height="2.54"/><rect class="cls-6" x="124.5" y="132.01" width="5.34" height="2.54"/><rect class="cls-6" x="131.97" y="132.01" width="24.12" height="2.54"/><rect class="cls-6" x="159.51" y="132.01" width="10.89" height="2.54"/><rect class="cls-6" x="175.1" y="132.01" width="11.1" height="2.54"/><rect class="cls-6" x="191.75" y="132.01" width="7.47" height="2.54"/><rect class="cls-6" x="166.84" y="138.26" width="12.17" height="2.54"/><rect class="cls-6" x="96.1" y="138.26" width="6.4" height="2.54"/><rect class="cls-6" x="106.99" y="138.26" width="30.53" height="2.54"/><rect class="cls-6" x="142.22" y="138.26" width="6.19" height="2.54"/><rect class="cls-6" x="151.4" y="138.26" width="9.82" height="2.54"/><rect class="cls-6" x="184.92" y="138.26" width="14.94" height="2.54"/><path class="cls-2" d="M343.61,295.58a36.64,36.64,0,0,1-8.72-10.85,27.85,27.85,0,0,1-2.27-6.48,25.9,25.9,0,0,1-.5-3.39c-.05-.58.24-2.81-.08-3.19,2.28,2.76,5.64,4.09,8.06,6.59a35,35,0,0,1,6.21,9,21,21,0,0,1,1.86,5.88c.15.95.78,4.44-.13,5.14-.28.22-1.1-.26-1.34-.38A15.32,15.32,0,0,1,343.61,295.58Z" transform="translate(-301.02 -153.09)"/><path class="cls-7" d="M352.46,319.72A67.12,67.12,0,0,0,337.51,280" transform="translate(-301.02 -153.09)"/><path class="cls-2" d="M347,299.94a12.13,12.13,0,0,0-6.27-2.91,23.74,23.74,0,0,0-7,0,45.35,45.35,0,0,0-8.14,1.8,12.07,12.07,0,0,0,6.36,5,19.13,19.13,0,0,0,6.66,1.19c3.35,0,6.66-.8,10-.7a2.1,2.1,0,0,1,1.53.38A11.07,11.07,0,0,0,347,299.94Z" transform="translate(-301.02 -153.09)"/><path class="cls-7" d="M350,304.51a12.23,12.23,0,0,0-7.43-3.62,38.86,38.86,0,0,0-8.69.11" transform="translate(-301.02 -153.09)"/><path class="cls-2" d="M363.81,297.63c-1.09,1.72-2.69,3.13-3.84,4.81a29.51,29.51,0,0,0-1.78,3.5,16.93,16.93,0,0,1-2.89,4.16.76.76,0,0,1-.63.32.71.71,0,0,1-.45-.35c-1-1.4-.85-3.06-.74-4.65a46.43,46.43,0,0,1,.73-5.65,15,15,0,0,1,1.6-4.88,18.47,18.47,0,0,1,2.85-3.57,19.61,19.61,0,0,0,3.83-5.78,26.55,26.55,0,0,1,2.15,5,9.1,9.1,0,0,1,0,5.37A8.88,8.88,0,0,1,363.81,297.63Z" transform="translate(-301.02 -153.09)"/><path class="cls-7" d="M353.76,317.54c-.46-3.64.75-7.19,1.15-10.77A26.61,26.61,0,0,1,358.55,296" transform="translate(-301.02 -153.09)"/><path class="cls-4" d="M336.5,314.8c.91,5.69,4.47,11.56,9.29,14.51a2.26,2.26,0,0,0,1.14.3H357.7a2.26,2.26,0,0,0,1.14-.3c4.82-2.95,8.38-8.82,9.29-14.51Z" transform="translate(-301.02 -153.09)"/><rect class="cls-2" x="25.91" y="176.72" width="235.22" height="5.8"/><rect class="cls-2" x="25.91" y="193.64" width="235.22" height="5.8"/><rect class="cls-2" x="39.38" y="178.66" width="3.45" height="62.78"/><rect class="cls-2" x="243.87" y="178.66" width="3.45" height="62.78"/><path class="cls-8" d="M467.77,247.24c1.68-1.25,3.55-2,5.15-3.37a50.15,50.15,0,0,0,4.19-4.31c1.86-2,6.94-7.17,9.31-3.56a21.54,21.54,0,0,1,3.77,11.14,38.46,38.46,0,0,1-.24,7.12,16.64,16.64,0,0,1-1.83,5.66,17.17,17.17,0,0,1-3.27,4.12c-1.1,1-2.54,2.63-4,3.11a17.3,17.3,0,0,1-10.51-.23,11.3,11.3,0,0,1-3.39-1.72c-2.85-2.22-3.88-6.13-3.72-9.74a10.89,10.89,0,0,1,.93-4.21A11.31,11.31,0,0,1,467.77,247.24Z" transform="translate(-301.02 -153.09)"/><path class="cls-9" d="M364.83,256.69c-.14-.42-.28-.83-.45-1.25a13.39,13.39,0,0,0-3.95-5.14c-1.16-.92-2.46-1.65-3.64-2.55-1.44-1.09-3-2-4.44-3.1l-5-3.84a1.41,1.41,0,0,0-1.26-.42,1.18,1.18,0,0,0-.62.94c-.3,1.5.66,2.8,1.72,3.77a22.39,22.39,0,0,1,4,4c2,3.16-2.24,2.35-3.74.69a10.31,10.31,0,0,1-1.65-2.86,36.75,36.75,0,0,1-1.43-5.18c-.18-.66-.77-4-2.15-2.57a1.88,1.88,0,0,0-.38,1,10.13,10.13,0,0,0,0,3.06c-.34-.24-.79.14-1,.51-.44.89-.22,1.76-.73,2.56a4.49,4.49,0,0,0-.72,2.87,7.27,7.27,0,0,0,.85,2.5c1.22,2.45,3,5.89,5.43,7.33s5.5,2.57,7.49,4.75a6.6,6.6,0,0,1,1.21,2.41c4,11.6,5.88,23.9,8.93,35.75a121.19,121.19,0,0,0,5.95,18.53c1,2.35,3.79,7.31,6,8.75,2.32,1.55,2.83-.36,5.67-1,2.41-.51,4.35-2.27,6.05-4.06,2.61-2.74,5.83-6.53,5.95-10.54a23.35,23.35,0,0,0-2.52-10.06c-.36-.72-.75-1.42-1.14-2.12-3.95-7-9.6-13-13.08-20.13-.81-1.65-1.6-3.32-2.38-5-2.24-4.76-4.4-9.57-6.65-14.32l-1.71-3.56A14.61,14.61,0,0,1,364.83,256.69Z" transform="translate(-301.02 -153.09)"/><path class="cls-10" d="M342,243c.29,1,.59,2.1.88,3.16.6,2.19,1.31,4.53,3.09,5.94" transform="translate(-301.02 -153.09)"/><path class="cls-10" d="M340.41,246.2a20.66,20.66,0,0,0,3.46,7.9,2.72,2.72,0,0,0,.51.56" transform="translate(-301.02 -153.09)"/><path class="cls-9" d="M364.74,256.17a13.74,13.74,0,0,1-.35,2.47" transform="translate(-301.02 -153.09)"/><path class="cls-11" d="M469.09,240.39c0-1.18,0-2.34-.06-3.48l-21.67-.11c.1,6.71-.23,12.93-.64,18.73a19.48,19.48,0,0,1-1.43,7.16c4.47,1.86,7.63,4.2,12.47,4.69,4.38.45,10,.55,13.9-1.51C468.48,257.46,469.27,248.84,469.09,240.39Z" transform="translate(-301.02 -153.09)"/><path class="cls-12" d="M497.75,369.73a15.31,15.31,0,0,0,3.27-.94,11.63,11.63,0,0,0,6.79-8.84c.79-5.54-2.48-10.77-3.52-16.27-.49-2.61-.5-5.39-1.72-7.75-.56-1.08-1.36-2-1.93-3.1-2-3.82-.41-7.5-.55-11.47-.14-3.73-.5-7.45-.48-11.24a46.7,46.7,0,0,1,.46-7.58c.45-2.6,1.34-5.11,1.83-7.71,2.42-12.81-4.69-28.72-16.57-34.64-10.18-5.07-21.85-6.46-33.22-6.21-9.82.21-31.46,5.4-37.41,13.2-7.81,10.23-3.65,25.06,4.37,33.86-1.44,8.17-2.8,16.37-3.68,24.62-.76,7.19.16,14.88-2.46,21.69a20.2,20.2,0,0,0-1.3,3.89,12.82,12.82,0,0,0,.1,3.81c1,6.71,4,13.62,10,16.9,4.32,2.38,9.49,2.51,14.42,2.46,19.46-.19,38.86-2.21,58.22-4.24C495.48,370.05,496.63,369.93,497.75,369.73Z" transform="translate(-301.02 -153.09)"/><path class="cls-12" d="M441.75,255a60.21,60.21,0,0,0-27.57,11.93A97.53,97.53,0,0,0,399.88,281C395.72,286,392,292.67,387,296.73A91.15,91.15,0,0,1,380.36,285a13.4,13.4,0,0,0-1.73-3,21.67,21.67,0,0,1-1.63-1.84,15.37,15.37,0,0,1-1.3-3.55c-.42-1.19-1.3-2.41-2.56-2.51-4.08,3.87-10.46,4.21-14.93,7.62a1.54,1.54,0,0,0-.58.66,1.63,1.63,0,0,0,0,.82c.81,4.44,1.48,8.93,2.31,13.34s1.09,9.2,2.48,13.37c1.3,6,3.46,12.06,7.81,16.4,1.83,1.84,5.11,3.36,7.54,4.33a25.77,25.77,0,0,0,10.13,1.39,31.66,31.66,0,0,0,19.25-7,61.22,61.22,0,0,0,6.12-6c3.54-3.82,7.09-7.24,9.46-11.86,1.59-3.12,3.31-6.18,5-9.24,1.05-1.88,7-14.91,9.8-14.33,1.44.3,2.92.54,4.44.74,0-3.75.24-7.51.41-11.26.09-2,.19-4,.21-6,0-1.37-.71-3.33-.37-4.58a19.79,19.79,0,0,1,4.34-8.08Q444.15,254.6,441.75,255Z" transform="translate(-301.02 -153.09)"/><path class="cls-12" d="M466.29,255.42c4.57.63,4.82.75,9.37,1.28,15.59,1.82,30.19,18.31,39.39,29.64,7.21,8.89,20.92,24.94,17.28,37.46-2.27,7.82-12.12,9.8-19.16,8.55-10.11-1.8-17.19-9.86-23.08-17.66-2.08-2.75-18.5-31.27-19.36-31.09-1.44.3-2.92.54-4.44.74Z" transform="translate(-301.02 -153.09)"/><path class="cls-13" d="M462.18,217.3a16.65,16.65,0,0,0-8.81-8.23,11.77,11.77,0,0,0-7.88-.89,17.61,17.61,0,0,0-3.5,1.55,13.09,13.09,0,0,0-2.6,1.67c-1.95,1.72-3.26,4.79-3.82,7.27q-.69,3.12-1.08,6.29a14.66,14.66,0,0,1-2.61,4.57,1,1,0,0,0,.32,1.53,7.64,7.64,0,0,0,1.82.48c0,1.33,0,2.66,0,4,.12,3.29.72,7,3.4,8.88,4.65,3.32,14.95.43,19-2.83a20.57,20.57,0,0,0,6.95-12A19.74,19.74,0,0,0,462.18,217.3Z" transform="translate(-301.02 -153.09)"/><path class="cls-13" d="M434,234a2.51,2.51,0,0,0,2,.34" transform="translate(-301.02 -153.09)"/><path class="cls-8" d="M438.25,223.23a6.38,6.38,0,0,1-.47-1.13c-.36-1.19.29-1.9-.86-2.93a5.94,5.94,0,0,0-2.23-.81.68.68,0,0,1-.58-.83c1.11-4.64,5-8.4,9.43-10.32,4.8-2.07,10.18-2.32,15.41-2.2,3.9.1,8.13.53,11,3.21,3.22,3.05,3.65,7.79,5.26,11.7,1.71,4.12,5.18,7.29,7.93,10.71s5,7.34,5.68,11.67c.48,3.16.1,7-1.82,9.69s-5.48,4-8.39,5.45c-4.61,2.24-8.8,5.52-13.79,6.7a21,21,0,0,1-15.2-2.63c-2.5-1.47-4.94-3.76-4.94-6.65,0-1.14.38-2.25.37-3.39a7.61,7.61,0,0,0-2.32-4.86,49.27,49.27,0,0,1-3.77-4,8,8,0,0,1-.41-8.6c1.06-2,2.23-3.53,2-5.87C440.35,226.14,439.15,224.93,438.25,223.23Z" transform="translate(-301.02 -153.09)"/><path class="cls-8" d="M459.1,197.08a6.69,6.69,0,0,1,4.57-.65,5.77,5.77,0,0,1,4,1.9c3.08,4.22-3.37,9.82-7.53,9C455.24,206.47,455.42,199.52,459.1,197.08Z" transform="translate(-301.02 -153.09)"/><path class="cls-14" d="M416.77,315.69c1.11-5.22,1.92-5.78,3-11,.59-2.77,1.84-5,3-7.59" transform="translate(-301.02 -153.09)"/><path class="cls-14" d="M499.76,325.59c-.48-7.62-3-15.71-4.79-23.14" transform="translate(-301.02 -153.09)"/><path class="cls-8" d="M471.62,272.62c-.79-.08-1.6-.22-2.38-.22a26.2,26.2,0,0,0-4.19.71,5,5,0,0,1-4.05-.75,3.2,3.2,0,0,1-.07-4.33c1.3-1.36,3.91-1.64,5.63-2a11.25,11.25,0,0,0,4.24-1.71c2.15-1.6,3.14-5.12,5.67-6.18,2.26-.94,6,.58,6.48,3.15.33,1.87-1,3.64-2.43,4.85s-3.18,2.17-4.26,3.74a8.35,8.35,0,0,1-1.64,2.24A4.15,4.15,0,0,1,471.62,272.62Z" transform="translate(-301.02 -153.09)"/><path class="cls-12" d="M481.6,251.22a4.75,4.75,0,0,0-1.25-3.39,5.34,5.34,0,0,0-2-.94,71.88,71.88,0,0,0-33.86-1.68,12.23,12.23,0,0,0-4.54,1.58,8.25,8.25,0,0,0-3.34,7.17,14.55,14.55,0,0,0,2.85,7.64c6.16,8.95,17.56,12.27,27.88,9.49C475.31,269,482,259.32,481.6,251.22Z" transform="translate(-301.02 -153.09)"/><path class="cls-14" d="M456.24,272.41c-7.41-.43-15.51-4.28-17.5-12.05" transform="translate(-301.02 -153.09)"/><path class="cls-14" d="M387,296.72a11.27,11.27,0,0,0-.41,2.94,13,13,0,0,1-.06,2.25,11.56,11.56,0,0,1-1.94,3.77,14,14,0,0,0-2,7.26" transform="translate(-301.02 -153.09)"/><path class="cls-14" d="M377.06,279.76c-1,1.73-3.05,2.56-4.94,3.28-4.29,1.63-8.77,4-13.06,5.61" transform="translate(-301.02 -153.09)"/><path class="cls-14" d="M383.29,307.87a34.08,34.08,0,0,1,1.58,6.25" transform="translate(-301.02 -153.09)"/><path class="cls-14" d="M378.45,327.78l2.88,1.07" transform="translate(-301.02 -153.09)"/><path class="cls-14" d="M360.51,287.94a55.36,55.36,0,0,0-1.39-6.87" transform="translate(-301.02 -153.09)"/><path class="cls-14" d="M362.58,287.22a45.33,45.33,0,0,0-1.67-7.18" transform="translate(-301.02 -153.09)"/><path class="cls-14" d="M362.61,279.23a17.72,17.72,0,0,1,.64,2c.21.82.37,1.66.58,2.49s.5,1.73.78,2.58" transform="translate(-301.02 -153.09)"/><path class="cls-14" d="M364,278.53a1,1,0,0,0,.21.77c1.12,1.93,1.26,4.26,2.15,6.3" transform="translate(-301.02 -153.09)"/><path class="cls-14" d="M366.91,277.46l2.31,6.79" transform="translate(-301.02 -153.09)"/><path class="cls-14" d="M368.11,276.94a11.87,11.87,0,0,1,1.84,3.39,24.37,24.37,0,0,0,1.14,3.31" transform="translate(-301.02 -153.09)"/><path class="cls-14" d="M370.4,275.75c.51.94,1.41,1.63,1.94,2.56.25.44.42.93.65,1.38a8,8,0,0,1,1,2c0,.17.08.38.24.43" transform="translate(-301.02 -153.09)"/><path class="cls-14" d="M372.08,274.77s-.09,0-.1,0a.15.15,0,0,0,0,.14c.43.55.84,1.11,1.25,1.67a13,13,0,0,1,2.37,4.64" transform="translate(-301.02 -153.09)"/><path class="cls-14" d="M520.4,326.64a4.77,4.77,0,0,0,4.63-2.17" transform="translate(-301.02 -153.09)"/><path class="cls-1" d="M456.45,204.55c3.17.9,6.55,1.8,9.73.93" transform="translate(-301.02 -153.09)"/><path class="cls-4" d="M498.67,395c-.64.22-1.28.43-1.93.63-11.44,3.74-23,7.5-35.06,8.27-9.89.63-19.79-.79-29.6-2.21-11.23-1.62-22.15-1.84-24.83-14.31a75.54,75.54,0,0,1-1.5-21.05c.27-3.88.89-7.9,3.09-11.1a42.46,42.46,0,0,1,4.68-5.09c13.21-13.81,7.4-34,18.51-47.49,10.61-12.9,28.94-16,43.73-8.78,9.4,4.58,17.88,12.75,19.43,23.37,1.76,12.1,1.22,23.93,9.15,34.32,2,2.56,4.31,4.84,5.79,7.69,4.57,8.76,4.44,25.61-4,32.08A25.6,25.6,0,0,1,498.67,395Z" transform="translate(-301.02 -153.09)"/><polygon class="cls-4" points="253.29 173.48 241.48 173.48 237.61 151.46 257.63 151.46 253.29 173.48"/><path class="cls-15" d="M552.09,311.42a18.93,18.93,0,0,1,6.33-1.81,2.32,2.32,0,0,1,1.48.33c1.16.74.84,2,.5,3l-2.15,6.5a1.72,1.72,0,0,1-1.76,1.2,48.34,48.34,0,0,0-10.34.42" transform="translate(-301.02 -153.09)"/><path class="cls-2" d="M500.19,194.58H494v-6.23h6.23Z" transform="translate(-301.02 -153.09)"/><path class="cls-12" d="M514.84,194.58H503.25l6-6.78Zm-9.51-.94h7.54l-3.62-4.4Z" transform="translate(-301.02 -153.09)"/><rect class="cls-2" x="515.85" y="190.85" width="9.05" height="0.93" transform="translate(-281.29 276.44) rotate(-45.63)"/><rect class="cls-2" x="519.53" y="190.85" width="9.05" height="0.93" transform="translate(-280.17 279.11) rotate(-45.64)"/><path class="cls-12" d="M532,190.64v.58h-.25c-.2,0-.32.11-.32.37v1.68a1,1,0,0,1-1.11,1.08H530v-.58h.18a.5.5,0,0,0,.56-.57v-1.6c0-.42.12-.58.39-.67-.27-.09-.39-.26-.39-.67v-1.6a.5.5,0,0,0-.56-.57H530v-.58h.33a1,1,0,0,1,1.11,1.08v1.68c0,.26.12.37.32.37Z" transform="translate(-301.02 -153.09)"/><path class="cls-2" d="M536.73,195c-1.37,0-2.45-1.66-2.45-3.78s1.08-3.78,2.45-3.78,2.46,1.66,2.46,3.78S538.11,195,536.73,195Zm0-6.62c-.72,0-1.52,1.17-1.52,2.84s.8,2.85,1.52,2.85,1.52-1.17,1.52-2.85S537.45,188.4,536.73,188.4Z" transform="translate(-301.02 -153.09)"/><path class="cls-12" d="M542.62,195c-1.38,0-2.46-1.66-2.46-3.78s1.08-3.78,2.46-3.78,2.45,1.66,2.45,3.78S544,195,542.62,195Zm0-6.62c-.72,0-1.52,1.17-1.52,2.84s.8,2.85,1.52,2.85,1.52-1.17,1.52-2.85S543.34,188.4,542.62,188.4Z" transform="translate(-301.02 -153.09)"/><polyline class="cls-1" points="173.87 17.27 177.92 21.57 173.87 24.43"/><polyline class="cls-1" points="177.21 17.27 181.26 21.57 177.21 24.43"/><ellipse class="cls-1" cx="186.04" cy="20.61" rx="2.15" ry="3.34"/><line class="cls-1" x1="193.19" y1="17.75" x2="193.19" y2="24.43"/><rect class="cls-2" x="196.29" y="18.22" width="3.82" height="6.2"/><rect class="cls-1" x="202.97" y="18.22" width="5.73" height="6.2"/><rect class="cls-2" x="211.33" y="18.22" width="6.44" height="6.2"/><path class="cls-1" d="M523.11,168.88c.81-.24,1.56.65,1.65,1.49a16.78,16.78,0,0,1-.29,2.52c-.06.85.31,1.86,1.14,2a.94.94,0,0,0-1.1.69,3.45,3.45,0,0,0,0,1.43,3.9,3.9,0,0,1-.45,2.71,1.86,1.86,0,0,1-2.43.66" transform="translate(-301.02 -153.09)"/><path class="cls-1" d="M528.55,169.18a14.42,14.42,0,0,1,0,11" transform="translate(-301.02 -153.09)"/><path class="cls-3" d="M531.48,168.91a14.78,14.78,0,0,1-.32,12.88" transform="translate(-301.02 -153.09)"/><path class="cls-1" d="M470.73,168.88c-.82-.24-1.57.65-1.66,1.49a15.6,15.6,0,0,0,.3,2.52c.05.85-.31,1.86-1.14,2a.94.94,0,0,1,1.09.69,3.28,3.28,0,0,1,0,1.43,4,4,0,0,0,.45,2.71,1.86,1.86,0,0,0,2.43.66" transform="translate(-301.02 -153.09)"/><path class="cls-1" d="M465.28,169.18a14.47,14.47,0,0,0,0,11" transform="translate(-301.02 -153.09)"/><path class="cls-3" d="M462.35,168.91a14.78,14.78,0,0,0,.32,12.88" transform="translate(-301.02 -153.09)"/><polyline class="cls-1" points="276.99 108.65 272.99 112.88 276.99 115.7"/><polyline class="cls-1" points="273.69 108.65 269.7 112.88 273.69 115.7"/><path class="cls-3" d="M563.9,265.27c0,1.81,1,3.29,2.12,3.29s2.11-1.48,2.11-3.29-.94-3.3-2.11-3.3S563.9,263.45,563.9,265.27Z" transform="translate(-301.02 -153.09)"/><line class="cls-1" x1="257.94" y1="108.88" x2="257.94" y2="115.47"/><rect class="cls-2" x="251.13" y="109.12" width="3.76" height="6.11"/><rect class="cls-16" x="242.66" y="109.12" width="5.64" height="6.11"/><rect class="cls-2" x="233.73" y="109.12" width="6.35" height="6.11"/><path class="cls-3" d="M530.5,259.49c-.8-.24-1.55.64-1.63,1.47a16.12,16.12,0,0,0,.29,2.48c.05.84-.31,1.83-1.12,2a.92.92,0,0,1,1.07.68,3.19,3.19,0,0,1,0,1.41,3.9,3.9,0,0,0,.45,2.67,1.82,1.82,0,0,0,2.39.65" transform="translate(-301.02 -153.09)"/><path class="cls-1" d="M525.13,259.86a14.29,14.29,0,0,0,0,10.81" transform="translate(-301.02 -153.09)"/><path class="cls-17" d="M582.11,259.49c.8-.24,1.55.64,1.63,1.47a16.12,16.12,0,0,1-.29,2.48c-.05.84.31,1.83,1.12,2a.92.92,0,0,0-1.07.68,3.19,3.19,0,0,0,0,1.41,3.9,3.9,0,0,1-.45,2.67,1.82,1.82,0,0,1-2.39.65" transform="translate(-301.02 -153.09)"/><path class="cls-2" d="M368.35,176.83a11.07,11.07,0,0,0-1.19,1.86l.19,0a1.93,1.93,0,0,1,1.25,2.4,1.86,1.86,0,0,1-2.37,1.22,1.76,1.76,0,0,1-.2-.09,11.11,11.11,0,0,0-.1,2.23,1.17,1.17,0,0,1,.2-.06,1.92,1.92,0,0,1,2.26,1.47,1.88,1.88,0,0,1-1.43,2.26l-.24,0a12.4,12.4,0,0,0,1,2l.16-.18a1.89,1.89,0,0,1,2.67.15,1.91,1.91,0,0,1-.1,2.69l-.22.16a11.83,11.83,0,0,0,1.91,1.25,1.32,1.32,0,0,1,.05-.26,1.87,1.87,0,0,1,2.37-1.22,1.93,1.93,0,0,1,1.25,2.4,2.21,2.21,0,0,1-.12.27,11.65,11.65,0,0,0,2.28.14,1.31,1.31,0,0,1-.09-.28,1.87,1.87,0,0,1,1.43-2.25,1.92,1.92,0,0,1,2.26,1.47c0,.1,0,.21,0,.31a11.74,11.74,0,0,0,2-1,2.29,2.29,0,0,1-.23-.21,1.89,1.89,0,1,1,2.79-2.54c.07.08.13.17.19.25a11.11,11.11,0,0,0,1.22-1.92,1.74,1.74,0,0,1-.29-.07,1.93,1.93,0,0,1-1.25-2.4,1.88,1.88,0,0,1,2.38-1.22l.27.13a11,11,0,0,0,.09-2.29l-.26.08a1.93,1.93,0,0,1-2.27-1.47,1.87,1.87,0,0,1,1.43-2.25l.28,0a11.85,11.85,0,0,0-1-2l-.17.19a1.91,1.91,0,0,1-2.57-2.83,1.49,1.49,0,0,1,.2-.15,11.4,11.4,0,0,0-1.9-1.23,1.7,1.7,0,0,1,0,.22,1.88,1.88,0,0,1-2.38,1.22,1.93,1.93,0,0,1-1.24-2.4,1.89,1.89,0,0,1,.09-.21,11.87,11.87,0,0,0-2.23-.12,1.59,1.59,0,0,1,.07.2,1.88,1.88,0,0,1-1.43,2.26,1.94,1.94,0,0,1-2.27-1.47c0-.08,0-.14,0-.21a10.65,10.65,0,0,0-2,1,1.66,1.66,0,0,1,.14.13,1.91,1.91,0,0,1-.11,2.69,1.88,1.88,0,0,1-2.67-.15A1.83,1.83,0,0,1,368.35,176.83Zm5.48,3.33a5.21,5.21,0,0,1,7.4.4,5.21,5.21,0,1,1-7.4-.4Z" transform="translate(-301.02 -153.09)"/><path class="cls-18" d="M372.8,179a6.73,6.73,0,0,1,9.55.52,6.73,6.73,0,1,1-9.55-.52Z" transform="translate(-301.02 -153.09)"/><path class="cls-2" d="M339.8,187.49a17.16,17.16,0,0,0-1.94,2.81l.3.07a3,3,0,0,1,1.8,3.76,2.87,2.87,0,0,1-3.71,1.76,2.8,2.8,0,0,1-.3-.15,18,18,0,0,0-.28,3.44,1.92,1.92,0,0,1,.32-.09,3,3,0,0,1,3.41,2.37,2.88,2.88,0,0,1-2.31,3.4,1.58,1.58,0,0,1-.37,0,17.77,17.77,0,0,0,1.48,3.16,3.07,3.07,0,0,1,.25-.26,2.95,2.95,0,0,1,3.82,4.49,4.15,4.15,0,0,1-.34.24,18.2,18.2,0,0,0,2.87,2,3.06,3.06,0,0,1,.1-.41,2.87,2.87,0,0,1,3.71-1.75,3,3,0,0,1,1.8,3.76,3,3,0,0,1-.19.41,18.77,18.77,0,0,0,3.5.33,3.06,3.06,0,0,1-.13-.43,2.9,2.9,0,0,1,2.32-3.41,3,3,0,0,1,3.42,2.38,2.59,2.59,0,0,1,0,.48,17,17,0,0,0,3.18-1.49,3.4,3.4,0,0,1-.34-.32,2.91,2.91,0,1,1,4.42-3.78,2.71,2.71,0,0,1,.28.41,17.64,17.64,0,0,0,2-2.91,3.69,3.69,0,0,1-.45-.11,3,3,0,0,1-1.8-3.76,2.88,2.88,0,0,1,3.71-1.76,2.74,2.74,0,0,1,.42.21,18,18,0,0,0,.26-3.52c-.14,0-.27.09-.42.12a3,3,0,0,1-3.41-2.38,2.87,2.87,0,0,1,2.32-3.4,3,3,0,0,1,.43,0,18.11,18.11,0,0,0-1.53-3.17,3.71,3.71,0,0,1-.27.29,3,3,0,0,1-3.82-4.5,3.62,3.62,0,0,1,.32-.22,18.33,18.33,0,0,0-2.86-2c0,.12-.05.23-.09.35a2.86,2.86,0,0,1-3.71,1.75,2.81,2.81,0,0,1-1.65-4.07,17.9,17.9,0,0,0-3.42-.3,2.8,2.8,0,0,1,.09.31,2.89,2.89,0,0,1-2.32,3.4,3,3,0,0,1-3.42-2.38,1.83,1.83,0,0,1,0-.33,17.61,17.61,0,0,0-3.08,1.45c.07.07.15.13.22.21a2.91,2.91,0,1,1-4.42,3.78C339.91,187.67,339.86,187.58,339.8,187.49Zm5.77,2.46a12,12,0,1,1-1.22,16.85A11.89,11.89,0,0,1,345.57,190Z" transform="translate(-301.02 -153.09)"/><path class="cls-2" d="M359.58,211.26a13.66,13.66,0,1,0-18.22-6.08A13.51,13.51,0,0,0,359.58,211.26Zm-14.28-8.07a9,9,0,1,1,12.24,4.08A9.16,9.16,0,0,1,345.3,203.19Z" transform="translate(-301.02 -153.09)"/><path class="cls-18" d="M343.87,203.91a10.64,10.64,0,1,1,14.41,4.8A10.68,10.68,0,0,1,343.87,203.91Z" transform="translate(-301.02 -153.09)"/><path class="cls-2" d="M553.53,222.18a6.28,6.28,0,0,1,9.82-5.23,7.44,7.44,0,0,1,6-2.54c3.24.16,6.38,2.35,6.64,5.35a7.2,7.2,0,0,1,2.78,12.54,4.43,4.43,0,0,1-.36,3.65,3.68,3.68,0,0,1-1.67,1.57,4.33,4.33,0,0,1-3.54.17l-.08,5.94a.37.37,0,0,1-.67.2l-3.1-4.48a3.92,3.92,0,0,1-5.68-3.22,5.13,5.13,0,0,1-2.56.54,5.2,5.2,0,0,1-5-4.79,5.35,5.35,0,0,1-5.22.1,4.65,4.65,0,0,1-2.27-2.51A5.26,5.26,0,0,1,553.53,222.18Z" transform="translate(-301.02 -153.09)"/><path class="cls-14" d="M574.9,229.45a4.26,4.26,0,0,1,3.75,2.64" transform="translate(-301.02 -153.09)"/><path class="cls-14" d="M556.16,231.44a5.22,5.22,0,0,1,5.46-5" transform="translate(-301.02 -153.09)"/><path class="cls-14" d="M553.09,222.19a5.28,5.28,0,0,1,3,.69" transform="translate(-301.02 -153.09)"/><path class="cls-14" d="M559,218.19a4.19,4.19,0,0,1,4,4.39" transform="translate(-301.02 -153.09)"/><path class="cls-14" d="M562.68,234.12a3.7,3.7,0,0,1-4-3.34" transform="translate(-301.02 -153.09)"/><path class="cls-14" d="M551,228.69a3.35,3.35,0,0,1,2.06-4.25" transform="translate(-301.02 -153.09)"/><path class="cls-14" d="M576.5,233.58a2.53,2.53,0,0,1-3.19,1.63" transform="translate(-301.02 -153.09)"/><path class="cls-14" d="M570.41,220.79a7,7,0,0,1,5.44-1" transform="translate(-301.02 -153.09)"/><path class="cls-14" d="M577,223a4.25,4.25,0,0,1,1.73,3.37" transform="translate(-301.02 -153.09)"/><path class="cls-14" d="M565.84,224.56a3.25,3.25,0,0,1,3.21,5.17" transform="translate(-301.02 -153.09)"/><path class="cls-14" d="M565.41,230.9a1.9,1.9,0,0,0-.59,1.65,1.93,1.93,0,0,0,1,1.41" transform="translate(-301.02 -153.09)"/><polyline class="cls-7" points="162.56 250.67 162.47 247.57 161.65 220.09 161.03 199.44 160.86 193.64 160.53 182.51 160.36 176.72 160.2 171.38 160.08 167.47 160.02 165.28 159.55 149.71 159.34 142.52 159.32 141.72 159.29 140.8 159.26 140.09 159.25 139.72"/><path class="cls-7" d="M495.38,392.41l-1.77.6c-10.49,3.53-21.11,7.09-32.12,7.82-9.07.59-18.13-.75-27.12-2.09-10.3-1.53-20.31-1.74-22.76-13.54a73.88,73.88,0,0,1-1.38-19.91c.25-3.67.82-7.46,2.84-10.5a39.86,39.86,0,0,1,4.29-4.81c12.1-13.06,6.78-32.15,17-44.92,9.72-12.19,26.51-15.12,40.06-8.3,8.62,4.34,16.39,12.06,17.81,22.11,1.61,11.44,1.12,22.63,8.39,32.46,1.78,2.42,3.94,4.57,5.3,7.27,4.18,8.29,4.07,24.22-3.64,30.34A23.34,23.34,0,0,1,495.38,392.41Z" transform="translate(-301.02 -153.09)"/><path class="cls-7" d="M490,320.27a19.79,19.79,0,0,1,1,7.08" transform="translate(-301.02 -153.09)"/><path class="cls-7" d="M491.65,331.16a26.07,26.07,0,0,0,5.7,17.65" transform="translate(-301.02 -153.09)"/><path class="cls-7" d="M432.31,336.6a21.29,21.29,0,0,1-1.62,7.07" transform="translate(-301.02 -153.09)"/><path class="cls-7" d="M433.9,343.93l-.52,3.81" transform="translate(-301.02 -153.09)"/><path class="cls-14" d="M385.82,329.84a23.32,23.32,0,0,0,13-3.63" transform="translate(-301.02 -153.09)"/><path class="cls-14" d="M509.31,310.47l1.38,1.89" transform="translate(-301.02 -153.09)"/><path class="cls-14" d="M510.61,308.61l2.18,3" transform="translate(-301.02 -153.09)"/><path class="cls-14" d="M515.26,291.2a12.48,12.48,0,0,1,4.09,4.33" transform="translate(-301.02 -153.09)"/><path class="cls-14" d="M443.2,252.57a5.51,5.51,0,0,1-.26,2.45" transform="translate(-301.02 -153.09)"/><path class="cls-14" d="M447,252.84a7,7,0,0,0-1.1,3" transform="translate(-301.02 -153.09)"/><path class="cls-14" d="M472.84,253.66a8.38,8.38,0,0,0,.27,3" transform="translate(-301.02 -153.09)"/><path class="cls-14" d="M412.74,274.32a54.5,54.5,0,0,0-6.25,7.07" transform="translate(-301.02 -153.09)"/><path class="cls-14" d="M411.09,278.93l-3.26,3.81" transform="translate(-301.02 -153.09)"/><path class="cls-2" d="M433.64,170a11.07,11.07,0,0,0-12.34-10.93,11.06,11.06,0,0,0-5.74,19.55,8.18,8.18,0,0,1,3,5.42l.48,4.3a1.85,1.85,0,0,0,1.85,1.65l3.54,0a1.85,1.85,0,0,0,1.84-1.67l.42-4.31a8.15,8.15,0,0,1,2.94-5.43A11.06,11.06,0,0,0,433.64,170Z" transform="translate(-301.02 -153.09)"/><path class="cls-4" d="M422.69,191.46h0a4.35,4.35,0,0,1-4.37-4.32v-1.89l8.69-.05v1.89A4.35,4.35,0,0,1,422.69,191.46Z" transform="translate(-301.02 -153.09)"/><path class="cls-19" d="M421,186.17c-.77-3.63-1.53-7.27-2.44-10.87-.48-1.91-3.12-7.55,1.12-6.9a2.44,2.44,0,0,1,2,2,1.69,1.69,0,0,1-.35,1.43,1.11,1.11,0,0,1-1.39.23,1.23,1.23,0,0,1-.48-.85,2.49,2.49,0,0,1,1.12-2.27c.92-.67,2.17-1.43,3.35-1a2.67,2.67,0,0,1,1.36,1.56,2.23,2.23,0,0,1,.17,1.41,1,1,0,0,1-1.06.79,1,1,0,0,1-.77-.75,2,2,0,0,1,.08-1.12A2.84,2.84,0,0,1,425.4,168a1.92,1.92,0,0,1,2.27.84,3,3,0,0,1,.13,1.72c-.35,2.73-1.23,5.27-1.73,8-.46,2.48-.91,5-1.37,7.45" transform="translate(-301.02 -153.09)"/><path class="cls-20" d="M405.54,167.21l3.39.48" transform="translate(-301.02 -153.09)"/><line class="cls-20" x1="107.5" y1="5.89" x2="110.09" y2="8.24"/><path class="cls-20" d="M419.22,153.65c.17.86.34,2.29.51,3.16" transform="translate(-301.02 -153.09)"/><path class="cls-20" d="M426.48,153.34c-.24,1.86-.41,3.14-.51,3.9" transform="translate(-301.02 -153.09)"/><path class="cls-20" d="M436.94,160.82l-3.36,2.36" transform="translate(-301.02 -153.09)"/><path class="cls-20" d="M436.2,168.44l3.64.24" transform="translate(-301.02 -153.09)"/><path class="cls-19" d="M420.24,161.55a8.53,8.53,0,0,0-6.12,10.66" transform="translate(-301.02 -153.09)"/></svg>